<svg id="Layer_1" data-name="Layer 1" xmlns="http://www.w3.org/2000/svg" viewBox="0 0 271.92 89"><defs><style>.cls-1{fill:none;}.cls-2{fill:#fff;}</style></defs><title>IntAct_White_xCA</title><rect id="Clear_Space" class="cls-1" width="271.92" height="89"/><g id="IntAct"><g id="LOGO"><path class="cls-2" d="M399.438,359.527V409.5h-3.967V359.527Z" transform="translate(-376.098 -340.148)"/><path class="cls-2" d="M413.091,409.5h-3.967v-36.86h3.632l.266,4.169q6.122-4.165,9.281-4.169h4.372q11.767,0,11.774,16.412V409.5h-3.9V389.055q0-12.717-7.871-12.711h-4.3q-2.487.133-9.282,4.644Z" transform="translate(-376.098 -340.148)"/><path class="cls-2" d="M452.242,364.367v8.276h13.185v3.5H452.242v23.137q.133,6.253,4.372,6.39l9.016-.272v3.164l-8.611.809q-8.817,0-8.814-10.762V376.142h-4.979v-3.5h4.979v-8.276Z" transform="translate(-376.098 -340.148)"/><path class="cls-2" d="M503.97,409.5l-5.517-15.336H478.207L472.69,409.5h-4.036l15.539-47.356a3.6,3.6,0,0,1,3.764-2.626h.671a3.529,3.529,0,0,1,3.764,2.626L508,409.5Zm-6.529-19.1-9.351-26.775L479.283,390.4Z" transform="translate(-376.098 -340.148)"/><path class="cls-2" d="M537.87,409.573l-13.249.2q-13.921,0-13.925-18.5,0-18.564,13.925-18.563l13.249.2v3.5l-13.046-.2q-10.155,0-10.155,15.065,0,15.2,10.155,15.2l13.046-.2Z" transform="translate(-376.098 -340.148)"/><path class="cls-2" d="M550.378,364.367v8.276h13.185v3.5H550.378v23.137q.133,6.253,4.372,6.39l9.016-.266v3.164l-8.611.81q-8.817,0-8.814-10.762V376.142h-4.979v-3.5h4.979v-8.276Z" transform="translate(-376.098 -340.148)"/></g><g id="IMAGO"><circle class="cls-2" cx="243.349" cy="60.429" r="9.199"/><path class="cls-2" d="M600.45,359.541a9.2,9.2,0,0,0-7.138,14.124,4.545,4.545,0,0,1,.052,4.708l-6.192,10.714a4.667,4.667,0,0,1-4.221,2.294,9.374,9.374,0,0,0-1.237.044,9.2,9.2,0,1,0,8.695,4.206,4.543,4.543,0,0,1-.053-4.708l6.2-10.719a4.653,4.653,0,0,1,4.212-2.289,9.122,9.122,0,0,0,1.243-.043,9.2,9.2,0,0,0-1.559-18.331Z" transform="translate(-376.098 -340.148)"/></g></g></svg>