<svg width="100" height="100" viewBox="0 0 100 100" fill="none" xmlns="http://www.w3.org/2000/svg">
<g clip-path="url(#clip0_792_109)">
<rect width="100" height="100" rx="50" fill="#F8F0FA"/>
<path d="M76.5 79C83.9558 79 90 72.9558 90 65.5C90 58.0442 83.9558 52 76.5 52C69.0442 52 63 58.0442 63 65.5C63 72.9558 69.0442 79 76.5 79Z" fill="url(#paint0_linear_792_109)"/>
<path d="M48.9746 6.02148C46.6724 6.17695 44.4501 6.93253 42.5262 8.2139C40.6024 9.49527 39.0432 11.2583 38.002 13.3297C36.9608 15.401 36.4734 17.7092 36.5879 20.0275C36.7023 22.3457 37.4146 24.594 38.6548 26.5514C39.2877 27.5757 39.6295 28.7548 39.643 29.9608C39.6565 31.1667 39.3412 32.3534 38.7314 33.3917L29.7944 48.9635C29.173 50.022 28.278 50.8912 27.2044 51.4784C26.1309 52.0656 24.9191 52.3488 23.6981 52.298C23.1022 52.2796 22.5056 52.2995 21.9121 52.3576C19.0381 52.6565 16.3395 53.8903 14.2257 55.8718C12.1119 57.8533 10.6983 60.4744 10.1994 63.3373C9.70055 66.2002 10.1436 69.1486 11.4615 71.7352C12.7793 74.3218 14.8999 76.4054 17.5015 77.6699C20.1031 78.9343 23.0437 79.3105 25.8771 78.7415C28.7105 78.1725 31.2821 76.6893 33.2016 74.5168C35.1212 72.3444 36.2839 69.6014 36.5134 66.7041C36.7428 63.8067 36.0265 60.9132 34.4731 58.4624C33.8402 57.4382 33.4984 56.259 33.4849 55.053C33.4714 53.8471 33.7867 52.6604 34.3965 51.6221L43.3552 36.0415C43.9744 34.9837 44.8681 34.1154 45.9405 33.5295C47.0129 32.9436 48.2236 32.6624 49.4428 32.7158C50.0417 32.7342 50.6411 32.7143 51.2374 32.6562C54.6703 32.2559 57.8132 30.5264 60 27.8346C62.1868 25.1427 63.2456 21.6999 62.9519 18.2361C62.6582 14.7723 61.0351 11.5597 58.4267 9.27922C55.8183 6.99877 52.4296 5.8298 48.9789 6.02006L48.9746 6.02148Z" fill="url(#paint1_linear_792_109)"/>
</g>
<defs>
<linearGradient id="paint0_linear_792_109" x1="76.5" y1="52" x2="76.5" y2="79" gradientUnits="userSpaceOnUse">
<stop stop-color="#863793"/>
<stop offset="1" stop-color="#2F2159"/>
</linearGradient>
<linearGradient id="paint1_linear_792_109" x1="36.5683" y1="5.98953" x2="36.5683" y2="79.0199" gradientUnits="userSpaceOnUse">
<stop stop-color="#863793"/>
<stop offset="1" stop-color="#2F2159"/>
</linearGradient>
<clipPath id="clip0_792_109">
<rect width="100" height="100" fill="white"/>
</clipPath>
</defs>
</svg>
