<svg id="Layer_1" data-name="Layer 1" xmlns="http://www.w3.org/2000/svg" viewBox="0 0 366.66 79.02"><defs><style>.cls-1{fill:#fff;}</style></defs><title>IntAct_Logo</title><g id="IntAct"><g id="LOGO"><path class="cls-1" d="M507,345v78.59h-6.23V345Z" transform="translate(-500.73 -345.01)"/><path class="cls-1" d="M528.43,423.61H522.2v-58h5.71l.42,6.55q9.61-6.54,14.59-6.55h6.87q18.51,0,18.52,25.8v32.16h-6.14V391.45q0-20-12.38-20H543q-3.91.21-14.6,7.3Z" transform="translate(-500.73 -345.01)"/><path class="cls-1" d="M590,352.63v13h20.73v5.5H590v36.38c.14,6.56,2.44,9.91,6.87,10.05l14.18-.43v5l-13.54,1.27q-13.86,0-13.86-16.92V371.15h-7.83v-5.5h7.83v-13Z" transform="translate(-500.73 -345.01)"/><path class="cls-1" d="M671.34,423.61l-8.68-24.12H630.83l-8.68,24.12h-6.34l24.43-74.47a5.68,5.68,0,0,1,5.92-4.13h1.05q4.66,0,5.92,4.13l24.55,74.47Zm-10.27-30-14.7-42.1-13.85,42.1Z" transform="translate(-500.73 -345.01)"/><path class="cls-1" d="M724.65,423.72l-20.84.32q-21.88,0-21.89-29.09t21.89-29.19l20.84.31v5.51l-20.52-.32q-16,0-16,23.69,0,23.9,16,23.9l20.52-.32Z" transform="translate(-500.73 -345.01)"/><path class="cls-1" d="M744.32,352.63v13h20.73v5.5H744.32v36.38c.13,6.56,2.43,9.91,6.87,10.05l14.18-.42v5l-13.54,1.27q-13.87,0-13.86-16.92V371.15h-7.83v-5.5H738v-13Z" transform="translate(-500.73 -345.01)"/></g><g id="IMAGO"><circle class="cls-1" cx="352.2" cy="64.56" r="14.46"/><path class="cls-1" d="M823.05,345a14.51,14.51,0,0,0-13.44,13.23,14.36,14.36,0,0,0,2.22,9,7.15,7.15,0,0,1,.08,7.41l-9.74,16.84a7.32,7.32,0,0,1-6.63,3.61,14.24,14.24,0,0,0-1.95.07,14.47,14.47,0,1,0,15.89,15.6,14.36,14.36,0,0,0-2.22-9,7.15,7.15,0,0,1-.08-7.41l9.75-16.85a7.3,7.3,0,0,1,6.62-3.6,14.24,14.24,0,0,0,2-.07A14.47,14.47,0,0,0,823.05,345Z" transform="translate(-500.73 -345.01)"/></g></g></svg>