<?xml version="1.0" encoding="utf-8"?>
<!-- Generator: Adobe Illustrator 23.0.1, SVG Export Plug-In . SVG Version: 6.00 Build 0)  -->
<svg version="1.1" id="Layer_1" xmlns="http://www.w3.org/2000/svg" xmlns:xlink="http://www.w3.org/1999/xlink" x="0px" y="0px"
	 viewBox="0 0 92 87" style="enable-background:new 0 0 92 87;" xml:space="preserve">
<style type="text/css">
	.st0{fill:#863894;stroke:#FFFFFF;stroke-miterlimit:10;}
	.st1{fill:none;}
	.st2{fill:#FFFFFF;}
</style>
<rect y="0" class="st0" width="92" height="87"/>
<title>Icon_White_wCA</title>
<rect y="0" class="st1" width="92" height="87"/>
<g id="IMAGO">
	<circle class="st2" cx="64.4" cy="59.4" r="9.2"/>
	<path class="st2" d="M45.4,18.4c-5.1,0.3-8.9,4.7-8.6,9.8c0.1,1.5,0.6,3,1.4,4.3c0.9,1.4,0.9,3.2,0.1,4.7l-6.2,10.7
		c-0.9,1.5-2.5,2.4-4.2,2.3c-0.4,0-0.8,0-1.2,0c-5,0.5-8.7,5-8.2,10.1s5,8.7,10.1,8.2c5-0.5,8.7-5,8.2-10.1c-0.1-1.4-0.6-2.8-1.4-4
		c-0.9-1.4-0.9-3.2-0.1-4.7L41.5,39c0.9-1.5,2.5-2.4,4.2-2.3c0.4,0,0.8,0,1.2,0c5-0.6,8.7-5.2,8.1-10.2
		C54.5,21.7,50.2,18.1,45.4,18.4L45.4,18.4z"/>
</g>
</svg>
