<?xml version="1.0" encoding="utf-8"?>
<!-- Generator: Adobe Illustrator 23.0.1, SVG Export Plug-In . SVG Version: 6.00 Build 0)  -->
<svg version="1.1" id="Layer_1" xmlns="http://www.w3.org/2000/svg" xmlns:xlink="http://www.w3.org/1999/xlink" x="0px" y="0px"
	 viewBox="0 0 271.9 89" style="enable-background:new 0 0 271.9 89;" xml:space="preserve">
<style type="text/css">
	.st0{fill:#863894;stroke:#000000;stroke-miterlimit:10;}
	.st1{fill:none;}
	.st2{fill:#FFFFFF;}
</style>
<rect y="0" class="st0" width="271.9" height="89"/>
<title>IntAct_White_xCA</title>
<rect id="Clear_Space" y="0" class="st1" width="271.9" height="89"/>
<g id="IntAct">
	<g id="LOGO">
		<path class="st2" d="M23.3,19.4v50h-4v-50H23.3z"/>
		<path class="st2" d="M37,69.4h-4V32.5h3.6l0.3,4.2c4.1-2.8,7.2-4.2,9.3-4.2h4.4c7.8,0,11.8,5.5,11.8,16.4v20.4h-3.9V48.9
			c0-8.5-2.6-12.7-7.9-12.7h-4.3c-1.7,0.1-4.8,1.6-9.3,4.6L37,69.4z"/>
		<path class="st2" d="M76.1,24.2v8.3h13.2V36H76.1v23.1c0.1,4.2,1.5,6.3,4.4,6.4l9-0.3v3.2l-8.6,0.8c-5.9,0-8.8-3.6-8.8-10.8V36h-5
			v-3.5h5v-8.3L76.1,24.2z"/>
		<path class="st2" d="M127.9,69.4L122.4,54h-20.2l-5.5,15.3h-4L108.1,22c0.5-1.7,2-2.8,3.8-2.6h0.7c1.7-0.2,3.3,0.9,3.8,2.6
			l15.6,47.4H127.9z M121.3,50.3L112,23.5l-8.8,26.8H121.3z"/>
		<path class="st2" d="M161.8,69.4l-13.2,0.2c-9.3,0-13.9-6.2-13.9-18.5c0-12.4,4.6-18.6,13.9-18.6l13.2,0.2v3.5l-13-0.2
			c-6.8,0-10.2,5-10.2,15.1c0,10.1,3.4,15.2,10.2,15.2l13-0.2V69.4z"/>
		<path class="st2" d="M174.3,24.2v8.3h13.2V36h-13.2v23.1c0.1,4.2,1.5,6.3,4.4,6.4l9-0.3v3.2l-8.6,0.8c-5.9,0-8.8-3.6-8.8-10.8V36
			h-5v-3.5h5v-8.3L174.3,24.2z"/>
	</g>
	<g id="IMAGO">
		<circle class="st2" cx="243.3" cy="60.4" r="9.2"/>
		<path class="st2" d="M224.4,19.4c-5.1,0.3-8.9,4.7-8.6,9.8c0.1,1.5,0.6,3,1.4,4.3c0.9,1.4,0.9,3.3,0.1,4.7l-6.2,10.7
			c-0.9,1.5-2.5,2.4-4.2,2.3c-0.4,0-0.8,0-1.2,0c-5.1,0.5-8.7,5-8.2,10.1c0.5,5.1,5,8.7,10.1,8.2c5.1-0.5,8.7-5,8.2-10.1
			c-0.1-1.4-0.6-2.8-1.4-4c-0.9-1.4-0.9-3.3-0.1-4.7l6.2-10.7c0.9-1.5,2.5-2.4,4.2-2.3c0.4,0,0.8,0,1.2,0c5.1-0.5,8.7-5,8.2-10.1
			C233.6,22.7,229.3,19.1,224.4,19.4L224.4,19.4z"/>
	</g>
</g>
</svg>
